<svg width="40" height="47" viewBox="0 0 40 47" fill="none"
	xmlns="http://www.w3.org/2000/svg">
	<g clip-path="url(#clip0)">
		<rect x="6" y="28" width="28" height="36" rx="8" fill="#A8A4C1"/>
		<path d="M13 28H27L25 51H15L13 28Z" fill="#F7F5FF"/>
		<rect x="28.1666" y="9.33333" width="5.83333" height="8.16667" rx="2.91667" fill="#A8A4C1"/>
		<rect x="29.3334" y="17.5" width="3.5" height="3.5" rx="1.75" fill="#A8A4C1"/>
		<rect x="7.16663" y="17.5" width="3.5" height="3.5" rx="1.75" fill="#A8A4C1"/>
		<rect x="6" y="9.33333" width="5.83333" height="8.16667" rx="2.91667" fill="#A8A4C1"/>
		<rect x="10.6666" y="1.16667" width="18.6667" height="26.8333" rx="9.33333" fill="#A8A4C1"/>
		<path d="M15.3334 17.5H24.6667V18.6667C24.6667 21.244 22.5774 23.3333 20 23.3333C17.4227 23.3333 15.3334 21.244 15.3334 18.6667V17.5Z" fill="#F7F5FF"/>
		<rect x="14.1666" y="11.6667" width="2.33333" height="3.5" rx="1.16667" fill="#F7F5FF"/>
		<rect x="23.5" y="11.6667" width="2.33333" height="3.5" rx="1.16667" fill="#F7F5FF"/>
		<path d="M10.6666 5.83333C10.6666 2.61167 13.2783 0 16.5 0H23.5C26.7216 0 29.3333 2.61167 29.3333 5.83333H10.6666Z" fill="#A8A4C1"/>
	</g>
	<defs>
		<clipPath id="clip0">
			<rect width="40" height="47" fill="white"/>
		</clipPath>
	</defs>
</svg>
