<svg width="142" height="115" viewBox="0 0 142 115" fill="none"
	xmlns="http://www.w3.org/2000/svg">
	<path d="M141.952 97.5155C141.689 94.0471 141.334 89.3505 141.079 86.7009C139.41 69.0034 137.989 54.2027 135.725 38.282C134.451 29.1668 132.411 11.9174 131.593 4.92644C131.421 3.44905 130.665 2.10173 129.494 1.18467C128.323 0.267619 126.834 -0.14297 125.359 0.0443877C119.951 0.731892 109.994 1.97558 104.386 2.58584C94.9077 3.61323 85.1359 5.26633 75.6962 6.86536L70.5438 7.76143C62.0466 9.18279 53.1862 9.97072 44.6426 10.7277C38.6405 11.2685 32.4375 11.8169 26.3813 12.5894C20.3251 13.3619 10.3987 14.6828 5.08409 15.3935C1.97219 15.8072 -0.259782 18.6014 0.0243706 21.7278C0.480132 26.9189 1.09039 34.0179 1.36076 38.4133C1.72382 44.1297 2.33408 49.8769 2.90571 55.4078C3.43872 60.3826 3.98718 65.5273 4.35024 70.6256C4.8987 78.3504 7.37835 102.838 8.11993 110.169C8.37927 112.58 10.4073 114.411 12.832 114.425H13.2183C20.6186 113.807 34.1756 112.679 41.8772 111.953C46.2494 111.544 50.7684 111.181 55.1252 110.794C63.9159 110.022 73.0003 109.249 81.7524 108.222C98.2448 106.221 128.781 103.348 137.749 102.513C140.273 102.261 142.136 100.045 141.952 97.5155Z" fill="#D5CEEA"/>
	<path d="M18.896 110.586C18.0427 110.586 17.351 109.894 17.351 109.041C17.4014 104.566 17.2002 100.091 16.7485 95.6384C16.3931 92.1777 16.0764 88.6861 15.7597 85.2409C15.2576 79.7254 14.74 74.0168 14.0834 68.4086C12.9093 58.2969 12.3917 48.6177 11.8432 38.367V38.1738C11.6229 35.0794 11.2439 31.9983 10.7077 28.9427C10.0708 25.4171 9.6657 21.8535 9.49491 18.2748C9.47571 17.4216 10.1518 16.7143 11.0051 16.6947C11.8584 16.6759 12.5656 17.3521 12.5848 18.2053C12.7389 21.6357 13.1182 25.0523 13.7204 28.4329C14.2741 31.5908 14.666 34.775 14.8945 37.973V38.1661C15.443 48.3705 15.9605 58.0033 17.127 68.0224C17.7836 73.6692 18.3089 79.3932 18.811 84.9319C19.1277 88.3848 19.4367 91.8842 19.792 95.2985C20.2566 99.8718 20.463 104.468 20.41 109.064C20.3977 109.896 19.7282 110.569 18.896 110.586Z" fill="#A7A3C2"/>
	<path d="M123.018 60.7534C122.493 57.0764 122.037 53.9015 121.805 52.0012C120.175 38.9309 118.94 27.5832 118.013 17.3092C117.976 16.8913 117.771 16.5062 117.444 16.2424C117.118 15.9787 116.699 15.8591 116.282 15.9111C116.043 15.9111 92.4281 18.9237 80.4084 20.5459C74.7925 21.3184 68.9525 21.8823 62.7727 22.4848C51.7649 23.5586 40.3709 24.671 30.2514 27.0193C29.5359 27.1843 29.0353 27.8301 29.0536 28.5642C29.6798 40.9239 30.7304 52.7428 31.6728 62.6382L31.8582 64.5153C32.8547 74.9592 33.8821 85.7584 35.4425 95.677C35.5615 96.4357 36.2196 96.9918 36.9874 96.9826H37.1265C37.1265 96.9826 57.6048 95.2058 67.1372 94.4102C71.8802 94.0162 76.7236 93.4832 81.4049 92.9656C86.0861 92.4481 90.8291 91.9228 95.4948 91.5288C98.2217 91.3048 101.034 91.1117 103.76 90.934C110.774 90.4628 118.028 89.9762 124.888 88.7556C125.595 88.6311 126.123 88.0358 126.162 87.3188C126.309 84.2367 124.826 73.4606 123.018 60.7534Z" fill="#F2F2F2"/>
	<path d="M120.878 52.1788C120.605 51.8718 120.221 51.6861 119.811 51.6629C119.401 51.6397 118.998 51.7809 118.692 52.0553C117.875 52.7269 117.002 53.3265 116.081 53.8474C115.124 54.4008 114.203 55.0149 113.324 55.6859C111.64 57.03 109.987 58.5132 108.387 59.9422C106.788 61.3713 105.359 62.6536 103.791 63.9205C105.236 48.471 102.918 46.4316 102.115 45.7364C101.383 45.0857 100.37 44.8528 99.4267 45.1184C95.2554 46.1999 85.7771 59.023 80.1921 68.0069C80.5938 63.1248 81.0881 56.7905 81.3121 52.8664C81.3121 52.6655 81.3122 52.4106 81.3662 52.0939C81.6211 48.8417 81.7293 45.5433 80.0916 43.9442C77.0017 40.9548 73.0466 44.6472 70.9223 46.6247C70.567 46.9492 70.258 47.2427 69.9954 47.459C62.4092 53.6646 55.2501 60.3746 48.5669 67.5434L45.2143 71.1818C41.6377 75.0442 37.9376 79.0611 34.6932 82.8385C34.4268 83.1499 34.2951 83.5543 34.3269 83.9629C34.3588 84.3714 34.5517 84.7505 34.8631 85.0168C35.5095 85.5734 36.4847 85.5008 37.0415 84.8546C40.2473 81.1158 43.9243 77.1299 47.4854 73.2675C48.6287 72.0315 49.7565 70.811 50.8379 69.6291C53.5725 66.6473 56.6392 63.5574 59.9609 60.4212C61.051 61.236 62.3773 61.6727 63.7383 61.6649C65.5266 61.5503 67.2772 61.0996 68.8984 60.3362C70.0003 59.8412 71.153 59.4682 72.336 59.2238C73.0717 59.9252 74.0543 60.3082 75.0705 60.2899H75.1092C76.0283 60.2749 76.9318 60.0503 77.751 59.6333C77.2257 66.6242 76.546 74.5266 76.5382 74.6348C76.4833 75.3698 76.9553 76.0412 77.6654 76.2385C78.3756 76.4357 79.1262 76.1039 79.4582 75.4459C81.7756 70.672 86.8276 63.1403 91.4316 57.1691C92.3613 57.8341 93.4713 58.2006 94.6142 58.2196C96.0131 58.1305 97.3723 57.718 98.5847 57.0146C99.3924 56.5832 100.252 56.2561 101.142 56.0412C101.103 58.8762 100.871 62.5069 100.369 67.049C100.299 67.6512 100.587 68.2388 101.106 68.5517C101.626 68.8646 102.28 68.8449 102.779 68.5013C105.476 66.5694 108.043 64.4638 110.465 62.1979C112.01 60.7997 113.656 59.3474 115.27 58.0574C116.049 57.4681 116.864 56.9288 117.711 56.4429C118.804 55.8271 119.838 55.1135 120.801 54.3109C121.392 53.7349 121.426 52.7961 120.878 52.1788ZM77.9364 55.655C77.2618 56.563 76.235 57.1437 75.1092 57.254C74.7953 57.2932 74.4892 57.1371 74.3367 56.8601C74.0542 56.3704 73.5268 56.0741 72.9617 56.0876C71.1542 56.2445 69.3888 56.7205 67.7475 57.4935C65.3451 58.4514 63.7769 58.9998 62.3015 58.266C65.3914 55.4619 68.5895 52.6346 71.9652 49.846C72.2587 49.6065 72.6218 49.2666 73.0312 48.8881C74.3058 47.7062 76.9708 45.2266 77.9364 46.1767C78.2763 46.5011 78.6085 47.7217 78.284 51.8544C78.284 52.1711 78.2377 52.4415 78.23 52.6655C78.1759 53.5075 78.1218 54.4577 78.0446 55.4773C78.0137 55.5468 77.9673 55.5932 77.9364 55.655ZM97.2484 54.2954C95.6107 55.0679 94.6528 55.5468 93.386 54.7975C96.3214 51.1901 98.8937 48.5405 100.176 48.1311C100.601 48.5714 100.987 50.1241 101.126 52.9668C99.7608 53.1744 98.4427 53.6216 97.2329 54.2877L97.2484 54.2954Z" fill="#6116FF"/>
	<path d="M49.9263 51.2828C47.5044 51.3392 45.3214 49.8299 44.519 47.544C43.6271 44.9886 44.6737 42.1597 47.0141 40.8003C49.3315 39.3557 51.649 39.294 53.5106 40.6303C55.4566 42.1885 56.3014 44.7472 55.6659 47.1578C55.0541 49.4411 53.0641 51.087 50.7065 51.2596C50.4471 51.2825 50.1866 51.2902 49.9263 51.2828ZM50.5675 42.7855C49.8813 42.8271 49.2192 43.054 48.6518 43.4422C47.5411 44.0368 47.0315 45.3537 47.4524 46.5411C47.8733 47.7286 49.0985 48.4304 50.3358 48.1929C51.4267 48.1654 52.3696 47.4236 52.6532 46.3698C52.952 45.1903 52.564 43.9429 51.649 43.1409C51.3372 42.9042 50.9588 42.7717 50.5675 42.7624V42.7855Z" fill="#FCD400"/>
	<path d="M90.3656 43.9211C89.6211 43.9176 88.985 43.3837 88.8525 42.6511C88.7199 41.9185 89.1288 41.1956 89.8249 40.9316C91.2665 40.4626 92.7857 40.2789 94.2975 40.3909C95.1508 40.4165 95.8217 41.1289 95.7961 41.9822C95.7705 42.8354 95.0581 43.5064 94.2048 43.4808C93.0964 43.394 91.9814 43.5091 90.9141 43.8207C90.7391 43.8881 90.5531 43.9222 90.3656 43.9211Z" fill="#A7A3C2"/>
	<path d="M101.057 32.7279C100.203 32.8004 99.4529 32.1675 99.3804 31.3143C99.3079 30.461 99.9408 29.7105 100.794 29.638C101.644 29.4912 102.54 29.3599 103.451 29.2208C104.996 28.9968 106.541 28.7651 107.963 28.4484C108.508 28.3072 109.087 28.4743 109.474 28.8843C109.86 29.2943 109.993 29.8822 109.82 30.4184C109.647 30.9547 109.196 31.3542 108.642 31.461C107.097 31.8009 105.491 32.0481 103.907 32.2798C103.019 32.4112 102.146 32.5425 101.327 32.6815L101.057 32.7279Z" fill="#A7A3C2"/>
	<path d="M109.044 36.0959C108.279 36.0985 107.628 35.5412 107.512 34.7853C107.396 34.0294 107.85 33.3023 108.581 33.0755C109.54 32.7974 110.522 32.6035 111.516 32.4962C112.068 32.4382 112.609 32.6791 112.935 33.1281C113.261 33.5772 113.323 34.1661 113.097 34.6731C112.871 35.1801 112.392 35.5281 111.84 35.5861C111.056 35.6681 110.28 35.8206 109.523 36.0418C109.367 36.0838 109.205 36.1021 109.044 36.0959Z" fill="#A7A3C2"/>
	<path d="M60.7333 36.3431H60.6869C59.8337 36.3431 59.142 35.6514 59.142 34.7981C59.142 33.9449 59.8337 33.2532 60.6869 33.2532C62.2725 33.2007 63.8523 33.0355 65.4145 32.7588C66.3646 32.612 67.3457 32.4652 68.2649 32.3803C68.8169 32.3265 69.3556 32.5712 69.6782 33.0223C70.0008 33.4734 70.0582 34.0623 69.8288 34.5672C69.5995 35.0722 69.1181 35.4164 68.5662 35.4702C67.7319 35.5474 66.8281 35.6865 65.878 35.8332C64.1776 36.1269 62.4582 36.2972 60.7333 36.3431Z" fill="#A7A3C2"/>
	<path d="M36.717 60.0272C35.8638 60.0443 35.1582 59.3664 35.1412 58.5132C35.1241 57.6599 35.802 56.9544 36.6552 56.9373C38.1446 56.8212 39.6163 56.5388 41.0429 56.0953C41.8436 55.911 42.6485 56.3856 42.8747 57.1754C43.101 57.9653 42.6695 58.7941 41.8926 59.0616C40.2331 59.5774 38.5199 59.9014 36.7866 60.0272H36.717Z" fill="#A7A3C2"/>
	<path d="M35.9369 46.8101C35.6766 46.8106 35.4172 46.7794 35.1644 46.7174C34.3824 46.3219 33.9455 45.4664 34.0835 44.601C34.2214 43.7355 34.9027 43.0583 35.7689 42.9255C36.6352 42.7927 37.488 43.2347 37.8789 44.019C38.2699 44.8033 38.1094 45.7504 37.4818 46.3621C37.0189 46.6532 36.4836 46.8084 35.9369 46.8101Z" fill="#A7A3C2"/>
	<path d="M113.517 49.6451C113.2 49.6451 112.876 49.6451 112.559 49.6065C111.706 49.5404 111.067 48.7951 111.134 47.9418C111.2 47.0886 111.945 46.4505 112.798 46.5166C114.524 46.5548 116.247 46.3757 117.928 45.9836C118.756 45.846 119.543 46.3961 119.699 47.2218C119.854 48.0475 119.321 48.8461 118.499 49.0194C116.861 49.3825 115.193 49.592 113.517 49.6451Z" fill="#A7A3C2"/>
	<path d="M24.8905 108.5C24.2506 108.499 23.6778 108.103 23.45 107.505C23.2221 106.907 23.3864 106.231 23.8631 105.804C24.9832 104.808 26.1033 103.742 27.1847 102.714C28.7297 101.231 30.3673 99.7016 32.0436 98.3112C32.7025 97.8351 33.6175 97.951 34.1369 98.5763C34.6563 99.2016 34.6023 100.122 34.0134 100.683C32.4144 102.011 30.8385 103.51 29.3168 104.954C28.2121 105.997 27.0766 107.079 25.9179 108.114C25.6342 108.364 25.2687 108.502 24.8905 108.5Z" fill="#A7A3C2"/>
	<path d="M25.4466 26.1618C25.0106 26.1608 24.5954 25.9756 24.3033 25.652C22.8338 24.2067 21.1853 22.9554 19.3981 21.9287C18.4788 21.3416 17.521 20.7391 16.6635 20.1056C15.9807 19.5989 15.8357 18.6357 16.3391 17.9504C16.5815 17.619 16.9458 17.3977 17.3516 17.3354C17.7574 17.2731 18.1714 17.3748 18.502 17.6182C19.2745 18.1899 20.1397 18.7383 21.0589 19.3254C23.0875 20.4896 24.9504 21.9212 26.5976 23.5818C27.1658 24.2158 27.1139 25.19 26.4817 25.7602C26.1984 26.0177 25.8295 26.1608 25.4466 26.1618Z" fill="#A7A3C2"/>
	<path d="M120.484 14.6365C120.214 14.6383 119.947 14.5691 119.712 14.4356C119.355 14.2331 119.094 13.897 118.985 13.5013C118.876 13.1057 118.929 12.6832 119.133 12.3268C120.251 10.4952 121.525 8.76352 122.941 7.15117C123.791 6.12378 124.594 5.15045 125.258 4.16941C125.755 3.47401 126.722 3.31319 127.417 3.81021C128.113 4.30723 128.274 5.27388 127.777 5.96928C127.004 7.0353 126.139 8.09359 125.289 9.12099C123.991 10.5974 122.82 12.1815 121.79 13.8563C121.522 14.3273 121.026 14.6234 120.484 14.6365Z" fill="#A7A3C2"/>
	<path d="M136.336 97.84C135.928 97.8403 135.536 97.6792 135.247 97.3919C134.798 96.9362 132.288 95.1363 130.789 94.0626C129.916 93.4369 129.152 92.8884 128.758 92.5871C128.291 92.2633 128.039 91.7093 128.103 91.1446C128.166 90.5799 128.535 90.0958 129.062 89.884C129.59 89.6721 130.191 89.7669 130.627 90.1306C131.006 90.4165 131.747 90.9418 132.597 91.552C134.269 92.6878 135.883 93.9073 137.433 95.2058C138.032 95.8084 138.032 96.7816 137.433 97.3842C137.142 97.6762 136.747 97.8403 136.336 97.84Z" fill="#A7A3C2"/>
</svg>
