<svg width="92" height="218" viewBox="0 0 92 218" fill="none"
	xmlns="http://www.w3.org/2000/svg">
	<g clip-path="url(#clip0)">
		<path d="M86.8454 40.9164C86.3463 32.4801 84.1599 16.368 77.6004 14.3718C71.1123 12.3994 68.1653 16.772 68.1653 16.772C68.1653 16.772 66.5492 3.10765 58.1123 1.0877C47.679 -1.40753 44.4944 7.71789 44.4944 7.71789C44.4944 7.71789 41.3098 -1.36 30.8765 1.11147C22.4396 3.13142 20.8235 16.7958 20.8235 16.7958C20.8235 16.7958 17.8527 12.3994 11.3884 14.3718C4.82896 16.368 2.64249 32.4801 2.1434 40.9164C1.57302 50.1844 0.123291 162.684 0.123291 162.684L-11.8767 237.684H112.123L91.1233 162.684C91.1233 162.684 87.392 50.1844 86.8454 40.9164Z" fill="#A7A3C2"/>
		<g opacity="0.5">
			<path opacity="0.5" d="M45.9918 35.0466C32.564 35.0466 20.2057 45.289 27.2642 52.3469C34.3227 59.4049 38.5055 50.2319 46.3483 50.2319C53.7633 50.2319 57.6609 57.6463 64.0064 53.4163C70.3519 49.1863 61.1782 35.0466 45.9918 35.0466Z" fill="#161827"/>
			<path opacity="0.5" d="M13.2184 20.3366C9.58219 20.6693 8.65532 24.5666 9.13064 28.559C9.58219 32.5276 11.8637 35.1892 14.3592 34.9278C16.8546 34.6664 18.9222 30.9592 18.6846 26.7054C18.4469 22.4516 16.1654 20.0752 13.2184 20.3366Z" fill="#161827"/>
			<path opacity="0.5" d="M34.2038 21.2159C36.6992 20.9545 38.7668 17.2473 38.5292 12.9935C38.2915 8.7635 36.0337 6.36333 33.063 6.62473C29.4268 6.95743 28.4999 10.8547 28.9752 14.8471C29.4268 18.8395 31.7083 21.4773 34.2038 21.2159Z" fill="#161827"/>
			<path opacity="0.5" d="M56.211 21.2159C58.7064 20.9545 60.774 17.2473 60.5364 12.9935C60.2987 8.7635 58.041 6.36333 55.0702 6.62473C51.434 6.95743 50.5071 10.8547 50.9824 14.8471C51.434 18.8395 53.6918 21.4773 56.211 21.2159Z" fill="#161827"/>
			<path opacity="0.5" d="M79.3355 26.6817C79.0978 22.4516 76.84 20.0515 73.8693 20.3129C70.2331 20.6456 69.3062 24.5429 69.7815 28.5353C70.2331 32.5039 72.5146 35.1655 75.01 34.904C77.5055 34.6426 79.5731 30.9354 79.3355 26.6817Z" fill="#161827"/>
		</g>
		<g opacity="0.6">
			<path opacity="0.6" d="M89.935 134.832C75.7704 135.07 59.2293 137.874 55.6406 138.682C40.3829 142.128 25.7906 148.592 9.9624 148.568C7.08671 148.568 3.807 148.449 0.432231 148.116C0.384699 152.394 0.313401 156.244 0.265869 159.499C3.75947 158.596 7.32437 157.693 10.9843 157.028C26.1946 154.247 42.5218 156.481 57.9935 156.481C64.8381 156.481 71.6589 156.481 78.5035 156.481C81.8308 156.481 86.1799 156.362 90.6242 155.745C90.4341 149.899 90.1964 142.698 89.935 134.832Z" fill="#2A2C40"/>
			<path opacity="0.6" d="M70.6131 62.9219C56.4961 62.209 42.3791 63.6349 28.381 65.2983C19.3499 66.3677 10.4852 68.6966 1.62044 70.669C1.52538 76.3249 1.40655 82.7412 1.28772 89.5377C21.9879 88.0406 43.1634 90.1081 63.8874 89.1337C66.8343 88.9912 78.0757 88.6109 88.2713 86.995C87.9861 79.034 87.7247 71.6671 87.5108 65.5598C81.593 63.9438 75.4376 63.1596 70.6131 62.9219Z" fill="#2A2C40"/>
			<path opacity="0.6" d="M89.6498 127.014C89.4597 121.572 89.2695 115.916 89.0794 110.284C83.3043 107.48 76.2695 108.264 69.5675 108.573C47.4176 109.523 23.2238 112.161 0.978871 109.333C0.883807 115.06 0.812509 120.811 0.741211 126.348C6.37375 126.467 11.127 126.871 12.7193 127.014C34.9167 128.844 67.999 138.848 89.6498 127.014Z" fill="#2A2C40"/>
		</g>
		<g opacity="0.2">
			<path opacity="0.2" d="M37.1033 40.0608C30.7578 42.8175 28.1673 47.4277 30.2587 49.5427C32.3977 51.6815 35.6298 45.2176 39.7414 44.2908C43.5914 43.4116 49.8419 43.0313 50.2697 41.1302C50.9589 37.9696 43.9479 37.0903 37.1033 40.0608Z" fill="#161827"/>
			<path opacity="0.2" d="M13.2422 23.0457C11.5786 22.9507 11.2459 25.3271 11.127 26.8955C11.032 28.2263 11.1033 30.1274 12.3153 30.2938C13.5512 30.4601 13.7413 28.4639 14.0978 27.2282C14.4543 26.04 14.5969 23.1408 13.2422 23.0457Z" fill="#161827"/>
			<path opacity="0.2" d="M32.2313 15.8452C33.4671 16.0116 33.6572 14.0154 34.0137 12.7796C34.3702 11.5439 34.489 8.64468 33.1344 8.57338C31.4707 8.47833 31.138 10.8547 31.0192 12.4232C30.9479 13.754 31.0192 15.6789 32.2313 15.8452Z" fill="#161827"/>
			<path opacity="0.2" d="M55.2604 8.8348C53.5968 8.73974 53.2641 11.1162 53.1452 12.6846C53.0502 14.0154 53.1215 15.9165 54.3335 16.0829C55.5694 16.2492 55.7595 14.253 56.116 13.0173C56.4725 11.8291 56.6151 8.92985 55.2604 8.8348Z" fill="#161827"/>
			<path opacity="0.2" d="M74.6298 22.713C72.9662 22.618 72.6334 24.9944 72.5146 26.5628C72.4196 27.8936 72.4909 29.7947 73.7029 29.9611C74.9387 30.1274 75.1289 28.1313 75.4854 26.8955C75.8656 25.6835 75.9844 22.7843 74.6298 22.713Z" fill="#161827"/>
		</g>
	</g>
	<defs>
		<clipPath id="clip0">
			<rect width="91" height="217" fill="white" transform="translate(0.123291 0.683716)"/>
		</clipPath>
	</defs>
</svg>
