<svg width="32" height="32" viewBox="4 6 24 18" fill="none"
	xmlns="http://www.w3.org/2000/svg">
	<g filter="url(#filter0_i)">
		<ellipse cx="22.5" cy="15" rx="5.5" ry="9" fill="#F8F5FF"></ellipse>
	</g>
	<path d="M27.75 15C27.75 17.4469 27.1434 19.6502 26.1758 21.2336C25.2055 22.8213 23.8987 23.75 22.5 23.75C21.1013 23.75 19.7945 22.8213 18.8242 21.2336C17.8566 19.6502 17.25 17.4469 17.25 15C17.25 12.5531 17.8566 10.3498 18.8242 8.7664C19.7945 7.17875 21.1013 6.25 22.5 6.25C23.8987 6.25 25.2055 7.17875 26.1758 8.7664C27.1434 10.3498 27.75 12.5531 27.75 15Z" stroke="#A7A3C2" stroke-width="0.5"></path>
	<g filter="url(#filter1_i)">
		<ellipse cx="9.5" cy="15" rx="5.5" ry="9" fill="#F8F5FF"></ellipse>
	</g>
	<path d="M14.75 15C14.75 17.4469 14.1434 19.6502 13.1758 21.2336C12.2055 22.8213 10.8987 23.75 9.5 23.75C8.10127 23.75 6.79447 22.8213 5.82423 21.2336C4.85662 19.6502 4.25 17.4469 4.25 15C4.25 12.5531 4.85662 10.3498 5.82423 8.7664C6.79447 7.17875 8.10127 6.25 9.5 6.25C10.8987 6.25 12.2055 7.17875 13.1758 8.7664C14.1434 10.3498 14.75 12.5531 14.75 15Z" stroke="#A7A3C2" stroke-width="0.5"></path>
	<circle cx="20" cy="15" r="2.75" fill="url(#paint0_linear)" stroke="#541F00" stroke-width="0.5"></circle>
	<circle cx="20" cy="15" r="2" fill="#251000"></circle>
	<circle cx="7" cy="15" r="2.75" fill="url(#paint1_linear)" stroke="#541F00" stroke-width="0.5"></circle>
	<circle cx="19" cy="14" r="1" fill="white"></circle>
	<circle cx="7" cy="15" r="2" fill="#251000"></circle>
	<circle cx="6" cy="14" r="1" fill="white"></circle>
	<defs>
		<filter id="filter0_i" x="17" y="6" width="11" height="18" filterUnits="userSpaceOnUse" color-interpolation-filters="sRGB">
			<feFlood flood-opacity="0" result="BackgroundImageFix"></feFlood>
			<feBlend mode="normal" in="SourceGraphic" in2="BackgroundImageFix" result="shape"></feBlend>
			<feColorMatrix in="SourceAlpha" type="matrix" values="0 0 0 0 0 0 0 0 0 0 0 0 0 0 0 0 0 0 127 0" result="hardAlpha"></feColorMatrix>
			<feMorphology radius="1" operator="erode" in="SourceAlpha" result="effect1_innerShadow"></feMorphology>
			<feOffset></feOffset>
			<feGaussianBlur stdDeviation="0.5"></feGaussianBlur>
			<feComposite in2="hardAlpha" operator="arithmetic" k2="-1" k3="1"></feComposite>
			<feColorMatrix type="matrix" values="0 0 0 0 0.654902 0 0 0 0 0.639216 0 0 0 0 0.760784 0 0 0 0.5 0"></feColorMatrix>
			<feBlend mode="normal" in2="shape" result="effect1_innerShadow"></feBlend>
		</filter>
		<filter id="filter1_i" x="4" y="6" width="11" height="18" filterUnits="userSpaceOnUse" color-interpolation-filters="sRGB">
			<feFlood flood-opacity="0" result="BackgroundImageFix"></feFlood>
			<feBlend mode="normal" in="SourceGraphic" in2="BackgroundImageFix" result="shape"></feBlend>
			<feColorMatrix in="SourceAlpha" type="matrix" values="0 0 0 0 0 0 0 0 0 0 0 0 0 0 0 0 0 0 127 0" result="hardAlpha"></feColorMatrix>
			<feMorphology radius="1" operator="erode" in="SourceAlpha" result="effect1_innerShadow"></feMorphology>
			<feOffset></feOffset>
			<feGaussianBlur stdDeviation="0.5"></feGaussianBlur>
			<feComposite in2="hardAlpha" operator="arithmetic" k2="-1" k3="1"></feComposite>
			<feColorMatrix type="matrix" values="0 0 0 0 0.654902 0 0 0 0 0.639216 0 0 0 0 0.760784 0 0 0 0.5 0"></feColorMatrix>
			<feBlend mode="normal" in2="shape" result="effect1_innerShadow"></feBlend>
		</filter>
		<linearGradient id="paint0_linear" x1="20" y1="12" x2="20" y2="18" gradientUnits="userSpaceOnUse">
			<stop stop-color="#642E00"></stop>
			<stop offset="1" stop-color="#FFC700"></stop>
		</linearGradient>
		<linearGradient id="paint1_linear" x1="7" y1="12" x2="7" y2="18" gradientUnits="userSpaceOnUse">
			<stop stop-color="#642E00"></stop>
			<stop offset="1" stop-color="#FFC700"></stop>
		</linearGradient>
	</defs>
</svg>
